<svg xmlns="http://www.w3.org/2000/svg" viewBox="0 0 52 68" x="0px" y="0px"><path fill="#fff" fill-rule="evenodd" d="M66,296 L74,296 C75.1045695,296 76,296.895431 76,298 L76,312 C76,313.104569 75.1045695,314 74,314 L66,314 C64.8954305,314 64,313.104569 64,312 L64,298 C64,296.895431 64.8954305,296 66,296 Z M106,296 L114,296 C115.104569,296 116,296.895431 116,298 L116,312 C116,313.104569 115.104569,314 114,314 L106,314 C104.895431,314 104,313.104569 104,312 L104,298 C104,296.895431 104.895431,296 106,296 Z M66,346 L74,346 C75.1045695,346 76,346.895431 76,348 L76,362 C76,363.104569 75.1045695,364 74,364 L66,364 C64.8954305,364 64,363.104569 64,362 L64,348 C64,346.895431 64.8954305,346 66,346 Z M106,346 L114,346 C115.104569,346 116,346.895431 116,348 L116,362 C116,363.104569 115.104569,364 114,364 L106,364 C104.895431,364 104,363.104569 104,362 L104,348 C104,346.895431 104.895431,346 106,346 Z M92,311.710121 L92,348.289879 C94.2577795,348.961827 96.0381733,350.74222 96.7101213,353 L100.005033,353 C100.557065,353 101,353.45191 101,354.009369 L101,355.990631 C101,356.556647 100.554538,357 100.005033,357 L96.7101213,357 C95.8495721,359.891489 93.1710206,362 90,362 C86.8289794,362 84.1504279,359.891489 83.2898787,357 L79.994967,357 C79.4429347,357 79,356.54809 79,355.990631 L79,354.009369 C79,353.443353 79.4454619,353 79.994967,353 L83.2898787,353 C83.9618267,350.74222 85.7422205,348.961827 88,348.289879 L88,311.710121 C85.7422205,311.038173 83.9618267,309.25778 83.2898787,307 L79.994967,307 C79.4429347,307 79,306.54809 79,305.990631 L79,304.009369 C79,303.443353 79.4454619,303 79.994967,303 L83.2898787,303 C84.1504279,300.108511 86.8289794,298 90,298 C93.1710206,298 95.8495721,300.108511 96.7101213,303 L100.005033,303 C100.557065,303 101,303.45191 101,304.009369 L101,305.990631 C101,306.556647 100.554538,307 100.005033,307 L96.7101213,307 C96.0381733,309.25778 94.2577795,311.038173 92,311.710121 Z M90,308 C91.6568542,308 93,306.656854 93,305 C93,303.343146 91.6568542,302 90,302 C88.3431458,302 87,303.343146 87,305 C87,306.656854 88.3431458,308 90,308 Z M90,358 C91.6568542,358 93,356.656854 93,355 C93,353.343146 91.6568542,352 90,352 C88.3431458,352 87,353.343146 87,355 C87,356.656854 88.3431458,358 90,358 Z" transform="translate(-64 -296)"/></svg>