<?xml version="1.0" encoding="UTF-8" standalone="no"?>
<svg
   xmlns:dc="http://purl.org/dc/elements/1.1/"
   xmlns:cc="http://creativecommons.org/ns#"
   xmlns:rdf="http://www.w3.org/1999/02/22-rdf-syntax-ns#"
   xmlns:svg="http://www.w3.org/2000/svg"
   xmlns="http://www.w3.org/2000/svg"
   xmlns:sodipodi="http://sodipodi.sourceforge.net/DTD/sodipodi-0.dtd"
   xmlns:inkscape="http://www.inkscape.org/namespaces/inkscape"
   version="1.1"
   x="0px"
   y="0px"
   viewBox="0 0 98.000099 64.000054"
   id="svg6"
   sodipodi:docname="icon-body.svg"
   width="98.000099"
   height="64.000053"
   inkscape:version="0.92.3 (2405546, 2018-03-11)">
  <metadata
     id="metadata12">
    <rdf:RDF>
      <cc:Work
         rdf:about="">
        <dc:format>image/svg+xml</dc:format>
        <dc:type
           rdf:resource="http://purl.org/dc/dcmitype/StillImage" />
        <dc:title></dc:title>
      </cc:Work>
    </rdf:RDF>
  </metadata>
  <defs
     id="defs10" />
  <sodipodi:namedview
     pagecolor="#ffffff"
     bordercolor="#666666"
     borderopacity="1"
     objecttolerance="10"
     gridtolerance="10"
     guidetolerance="10"
     inkscape:pageopacity="0"
     inkscape:pageshadow="2"
     inkscape:window-width="1600"
     inkscape:window-height="794"
     id="namedview8"
     showgrid="false"
     fit-margin-top="5"
     fit-margin-left="5"
     fit-margin-right="5"
     fit-margin-bottom="5"
     inkscape:zoom="1.888"
     inkscape:cx="43.0001"
     inkscape:cy="-28.499963"
     inkscape:window-x="0"
     inkscape:window-y="27"
     inkscape:window-maximized="1"
     inkscape:current-layer="svg6" />
  <g
     transform="translate(-0.99995,-970.36215)"
     id="g4">
    <path
       d="m 46.00005,975.36215 c -2,0.0106 -4,2 -4,4.1875 v 24.81245 h 52 v -24.9687 c 0,-2.04196 -1.9827,-4.02065 -4.0938,-4.03125 z m -10.0938,8 c -18.8889,2e-5 -29.9063,15.98946 -29.9063,22.18745 v 11.7813 c 0,2.0324 2.0143,4.0418 4.0313,4.0312 h 2.9687 c 0,-5.4992 4.5008,-10 10.0001,-10 5.4992,0 10,4.5008 10,10 h 2.9687 c 2.0228,0.011 4.0313,-1.9934 4.0313,-3.9375 v -30.0312 c 0,-2.04196 -1.9827,-4.02065 -4.0938,-4.03125 z m -4.9062,5.0625 c 1.0472,10e-5 1.9999,0.95283 2,2 v 15.99995 c 0,1.0577 -0.9737,2.0165 -2.0313,2 -3.9264,-0.087 -13.9688,-0.062 -17.9688,-0.062 -1.0472,-1e-4 -1.9999,-0.9528 -2,-2 0,-5.359 3.4801,-9.81032 7.5313,-12.9062 4.0512,-3.09588 8.691,-5.03125 12.4688,-5.03125 z m 11,19.93745 v 8.9688 c 0,2.0324 2.0142,4.0418 4.0312,4.0312 h 20.9688 c 0,-5.4992 4.5007,-10 10,-10 5.4992,0 10,4.5008 10,10 h 2.9687 c 2.0228,0.011 4.0313,-1.9934 4.0313,-3.9375 v -9.0625 z m -19,5 c -4.4184,0 -8.0001,3.5817 -8.0001,8 0,4.4184 3.5817,8.0001 8.0001,8.0001 4.4183,0 8,-3.5817 8,-8.0001 0,-4.4183 -3.5817,-8 -8,-8 z m 54,0 c -4.4184,0 -8,3.5817 -8,8 0,4.4184 3.5816,8.0001 8,8.0001 4.4183,0 8,-3.5817 8,-8.0001 0,-4.4183 -3.5817,-8 -8,-8 z"
       style="color:#000000;display:inline;overflow:visible;visibility:visible;fill:#ffffff;stroke:none;enable-background:accumulate"
       marker="none"
       visibility="visible"
       display="inline"
       overflow="visible"
       id="path2"
       inkscape:connector-curvature="0" />
  </g>
</svg>
